<svg width="20" height="20" viewBox="0 0 20 20" fill="none" xmlns="http://www.w3.org/2000/svg">
<path d="M2.74987 18.9583C2.44987 18.9583 2.15819 18.8833 1.90819 18.7333C1.34986 18.4083 1.0332 17.7583 1.0332 16.95V7.48334C1.0332 5.70834 2.47486 4.26666 4.24986 4.26666H10.7332C12.5082 4.26666 13.9499 5.70834 13.9499 7.48334V16.95C13.9499 17.7583 13.6332 18.4 13.0749 18.7333C12.5165 19.0583 11.7999 19.025 11.0915 18.6333L7.81655 16.8083C7.65822 16.7167 7.32486 16.7167 7.16652 16.8083L3.89153 18.6333C3.5082 18.85 3.11653 18.9583 2.74987 18.9583ZM4.2582 5.525C3.17487 5.525 2.29154 6.40833 2.29154 7.49166V16.9583C2.29154 17.3 2.39154 17.5667 2.54988 17.6583C2.70821 17.75 2.99155 17.7083 3.29155 17.5417L6.56655 15.7167C7.09988 15.425 7.89987 15.425 8.43321 15.7167L11.7082 17.5417C12.0082 17.7083 12.2832 17.75 12.4499 17.6583C12.6082 17.5667 12.7082 17.3 12.7082 16.9583V7.49166C12.7082 6.40833 11.8249 5.525 10.7416 5.525H4.2582Z" fill="#F45E0C"/>
<path d="M12.241 18.9583C11.8744 18.9583 11.491 18.85 11.0994 18.6417L7.82436 16.8167C7.66603 16.7333 7.32433 16.7333 7.166 16.8167L3.89934 18.6417C3.19101 19.0333 2.46601 19.0667 1.91601 18.7417C1.35767 18.4167 1.04102 17.7666 1.04102 16.9666V7.49999C1.04102 5.72499 2.48267 4.28334 4.25767 4.28334H10.741C12.516 4.28334 13.9577 5.72499 13.9577 7.49999V16.9666C13.9577 17.7666 13.641 18.4167 13.0827 18.7417C12.8327 18.8833 12.5494 18.9583 12.241 18.9583ZM7.49935 15.5C7.83268 15.5 8.15768 15.575 8.43268 15.725L11.7077 17.55C12.0077 17.7167 12.291 17.7583 12.4494 17.6583C12.6077 17.5667 12.7077 17.3 12.7077 16.9583V7.49165C12.7077 6.40832 11.8244 5.525 10.741 5.525H4.25767C3.17434 5.525 2.29102 6.40832 2.29102 7.49165V16.9583C2.29102 17.3 2.39101 17.5667 2.54935 17.6583C2.70768 17.75 2.99103 17.7083 3.29103 17.5417L6.56602 15.7166C6.83269 15.575 7.16602 15.5 7.49935 15.5Z" fill="#F45E0C"/>
<path d="M17.241 15.725C16.8744 15.725 16.491 15.6167 16.0994 15.4083L13.0244 13.6917C12.8244 13.5833 12.7077 13.375 12.7077 13.15V7.49999C12.7077 6.41666 11.8244 5.53334 10.741 5.53334H6.66602C6.32435 5.53334 6.04102 5.25001 6.04102 4.90834V4.26666C6.04102 2.49166 7.48267 1.05 9.25767 1.05H15.741C17.516 1.05 18.9577 2.49166 18.9577 4.26666V13.7333C18.9577 14.5333 18.641 15.1833 18.0827 15.5083C17.8327 15.65 17.5494 15.725 17.241 15.725ZM13.9577 12.775L16.7077 14.3167C17.0077 14.4833 17.2827 14.525 17.4494 14.425C17.616 14.325 17.7077 14.0667 17.7077 13.725V4.25832C17.7077 3.17498 16.8244 2.29166 15.741 2.29166H9.25767C8.17434 2.29166 7.29102 3.17498 7.29102 4.25832V4.275H10.741C12.516 4.275 13.9577 5.71665 13.9577 7.49165V12.775Z" fill="#F45E0C"/>
</svg>
