<svg width="20" height="20" viewBox="0 0 20 20" fill="none" xmlns="http://www.w3.org/2000/svg">
<path d="M14.541 18.9583C13.5993 18.9583 12.6077 18.7333 11.5827 18.2999C10.5827 17.8749 9.57435 17.2916 8.59102 16.5833C7.61602 15.8666 6.67435 15.0666 5.78268 14.1916C4.89935 13.2999 4.09935 12.3583 3.39102 11.3916C2.67435 10.3916 2.09935 9.39159 1.69102 8.42493C1.25768 7.39159 1.04102 6.3916 1.04102 5.44993C1.04102 4.79993 1.15768 4.18326 1.38268 3.60826C1.61602 3.0166 1.99102 2.4666 2.49935 1.9916C3.14102 1.35826 3.87435 1.0416 4.65768 1.0416C4.98268 1.0416 5.31602 1.1166 5.59935 1.24993C5.92435 1.39993 6.19935 1.62493 6.39935 1.92493L8.33268 4.64993C8.50768 4.8916 8.64101 5.12493 8.73268 5.35826C8.84101 5.60826 8.89935 5.85826 8.89935 6.09993C8.89935 6.4166 8.80768 6.72493 8.63268 7.0166C8.50768 7.2416 8.31601 7.48326 8.07435 7.72493L7.50768 8.3166C7.51602 8.34159 7.52435 8.35826 7.53268 8.37493C7.63268 8.54993 7.83268 8.84993 8.21601 9.29993C8.62435 9.76659 9.00768 10.1916 9.39102 10.5833C9.88268 11.0666 10.291 11.4499 10.6743 11.7666C11.1493 12.1666 11.4577 12.3666 11.641 12.4583L11.6243 12.4999L12.2327 11.8999C12.491 11.6416 12.741 11.4499 12.9827 11.3249C13.441 11.0416 14.0243 10.9916 14.6077 11.2333C14.8243 11.3249 15.0577 11.4499 15.3077 11.6249L18.0743 13.5916C18.3827 13.7999 18.6077 14.0666 18.741 14.3833C18.866 14.6999 18.9243 14.9916 18.9243 15.2833C18.9243 15.6833 18.8327 16.0833 18.6577 16.4583C18.4827 16.8333 18.266 17.1583 17.991 17.4583C17.516 17.9833 16.9993 18.3583 16.3993 18.5999C15.8243 18.8333 15.1993 18.9583 14.541 18.9583ZM4.65768 2.2916C4.19935 2.2916 3.77435 2.4916 3.36602 2.8916C2.98268 3.24993 2.71602 3.6416 2.54935 4.0666C2.37435 4.49993 2.29102 4.95826 2.29102 5.44993C2.29102 6.22493 2.47435 7.0666 2.84102 7.93326C3.21602 8.8166 3.74102 9.73326 4.40768 10.6499C5.07435 11.5666 5.83268 12.4583 6.66602 13.2999C7.49935 14.1249 8.39935 14.8916 9.32435 15.5666C10.2243 16.2249 11.1493 16.7583 12.066 17.1416C13.491 17.7499 14.8243 17.8916 15.9243 17.4333C16.3493 17.2583 16.7243 16.9916 17.066 16.6083C17.2577 16.3999 17.4077 16.1749 17.5327 15.9083C17.6327 15.6999 17.6827 15.4833 17.6827 15.2666C17.6827 15.1333 17.6577 14.9999 17.591 14.8499C17.566 14.7999 17.516 14.7083 17.3577 14.5999L14.591 12.6333C14.4243 12.5166 14.2743 12.4333 14.1327 12.3749C13.9493 12.2999 13.8743 12.2249 13.591 12.3999C13.4243 12.4833 13.2743 12.6083 13.1077 12.7749L12.4743 13.3999C12.1493 13.7166 11.6493 13.7916 11.266 13.6499L11.041 13.5499C10.6993 13.3666 10.2993 13.0833 9.85768 12.7083C9.45768 12.3666 9.02435 11.9666 8.49935 11.4499C8.09101 11.0333 7.68268 10.5916 7.25768 10.0999C6.86601 9.64159 6.58268 9.24993 6.40768 8.92493L6.30768 8.67493C6.25768 8.48326 6.24101 8.37493 6.24101 8.25826C6.24101 7.95826 6.34935 7.6916 6.55768 7.48326L7.18268 6.83326C7.34935 6.66659 7.47435 6.50826 7.55768 6.3666C7.62435 6.25826 7.64935 6.1666 7.64935 6.08326C7.64935 6.0166 7.62435 5.9166 7.58268 5.8166C7.52435 5.68326 7.43268 5.53326 7.31601 5.37493L5.38268 2.6416C5.29935 2.52493 5.19935 2.4416 5.07435 2.38326C4.94102 2.32493 4.79935 2.2916 4.65768 2.2916ZM11.6243 12.5083L11.491 13.0749L11.716 12.4916C11.6743 12.4833 11.641 12.4916 11.6243 12.5083Z" fill="#CBCBCB"/>
<path d="M15.4167 8.12501C15.075 8.12501 14.7917 7.84168 14.7917 7.50001C14.7917 7.20001 14.4917 6.57501 13.9917 6.04168C13.5 5.51668 12.9583 5.20834 12.5 5.20834C12.1583 5.20834 11.875 4.92501 11.875 4.58334C11.875 4.24168 12.1583 3.95834 12.5 3.95834C13.3083 3.95834 14.1583 4.39168 14.9 5.18334C15.5917 5.92501 16.0417 6.83334 16.0417 7.50001C16.0417 7.84168 15.7583 8.12501 15.4167 8.12501Z" fill="#CBCBCB"/>
<path d="M18.3333 8.12493C17.9917 8.12493 17.7083 7.8416 17.7083 7.49993C17.7083 4.62493 15.375 2.2916 12.5 2.2916C12.1583 2.2916 11.875 2.00826 11.875 1.6666C11.875 1.32493 12.1583 1.0416 12.5 1.0416C16.0583 1.0416 18.9583 3.9416 18.9583 7.49993C18.9583 7.8416 18.675 8.12493 18.3333 8.12493Z" fill="#CBCBCB"/>
</svg>
